<svg id="Layer_1" enable-background="new 0 0 511.982 511.982" height="512" viewBox="0 0 511.982 511.982" width="512" xmlns="http://www.w3.org/2000/svg"><path d="m270.991 402.454h37.243v109.529h-37.243z"/><path d="m.014 265.595h79.467v246.388h-79.467z"/><path d="m432.501 265.595h79.467v246.388h-79.467z"/><path d="m270.991 28.942v-28.942h-30v28.942c-29.581 5.477-53.641 26.829-63.003 54.857h156.006c-9.361-28.028-33.422-49.381-63.003-54.857z"/><path d="m402.499 511.982h.002v-216.387h-293.02v216.387h.002 64.265v-139.528h164.486v139.528z"/><path d="m203.748 402.454h37.243v109.529h-37.243z"/><path d="m348.235 265.595h54.264v-136.184l-46.835-15.612h-7.429z"/><path d="m163.748 113.799h-7.43l-46.835 15.612v136.184h54.265z"/><path d="m270.991 113.799h47.244v151.795h-47.244z"/><path d="m193.748 113.799h47.244v151.795h-47.244z"/></svg>