<svg id="Layer_1" enable-background="new 0 0 512.01 512.01" height="512" viewBox="0 0 512.01 512.01" width="512" xmlns="http://www.w3.org/2000/svg"><path d="m328.78 419.41h143.057l-13.042-312.979h-69.286v58.138h-30v-58.138h-101.453v58.138h-30v-58.138h-69.285l-3.818 91.514h173.827z"/><path d="m298.78 512.01v-284.065h-60.613v54.704c0 38.94-31.68 70.62-70.62 70.62s-70.621-31.68-70.621-70.62v-54.704h-60.611v284.011z"/><path d="m167.546 323.27c22.398 0 40.62-18.222 40.62-40.62v-54.704h-81.241v54.704c.001 22.397 18.223 40.62 40.621 40.62z"/><path d="m328.78 512.01h146.915l-2.608-62.6h-144.307z"/><path d="m258.056 80.726c0-27.97 22.756-50.726 50.726-50.726s50.726 22.755 50.726 50.726v25.654h30v-25.654c.001-44.513-36.213-80.726-80.726-80.726s-80.726 36.213-80.726 80.726v25.654h30z"/></svg>