<svg id="Layer_1" enable-background="new 0 0 511.975 511.975" height="512" viewBox="0 0 511.975 511.975" width="512" xmlns="http://www.w3.org/2000/svg"><path d="m285.699 123.88c0-12.759-10.38-23.139-23.139-23.139h-33.927v46.278h33.927c12.759.001 23.139-10.38 23.139-23.139z"/><path d="m208.997 334.386v78.021c-21.424 5.441-37.321 24.888-37.321 47.981v51.587h168.623v-51.587c0-23.093-15.897-42.54-37.321-47.982v-78.02z"/><path d="m408.179 304.384v-304.384h-304.384v304.384zm-145.619-127.364h-33.927v61.278h-30v-167.556h63.927c29.301 0 53.139 23.838 53.139 53.139s-23.838 53.139-53.139 53.139z"/></svg>