<svg id="Layer_1" enable-background="new 0 0 511.987 511.987" height="512" viewBox="0 0 511.987 511.987" width="512" xmlns="http://www.w3.org/2000/svg"><path d="m19.993 511.987h472.002v-109.999h-472.002zm285.598-72.998v30h-99.195v-30z"/><path d="m461.993 136.001h-77.998v-38.001h77.998v-98h-185.996v98h77.998v38.001h-134.934v72h19.272v30h-130.007v-30h19.273v-72h-77.604v235.987h411.998zm-303.664 202.007h-50.003v-30h50.003zm80.004 0h-50.003v-30h50.003zm67.258 0h-30.001v-30h30.001zm0-50.004h-30.001v-30h30.001zm0-50.003h-30.001v-30h30.001zm50.004 100.007h-30.002v-30h30.002zm0-50.004h-30.002v-30h30.002zm0-50.003h-30.002v-30h30.002zm50.003 100.007h-30.002v-30h30.002zm0-50.004h-30.002v-30h30.002zm-30.002-50.003v-30h30.002v30z"/><path d="m157.599 105.998h31.462v102.004h-31.462z"/></svg>