<svg id="Layer_1" enable-background="new 0 0 512.325 512.325" height="512" viewBox="0 0 512.325 512.325" width="512" xmlns="http://www.w3.org/2000/svg"><path d="m512.325 21.467-21.152-21.273-57.773 57.447 21.152 21.273-57.117 56.795c2.529 5.497 3.866 11.521 3.862 17.753-.008 11.338-4.43 21.995-12.452 30.007-8.016 8.005-18.668 12.414-29.995 12.414-11.35 0-22.016-4.422-30.035-12.453-8.013-8.022-12.421-18.685-12.414-30.023.008-11.338 4.431-21.995 12.453-30.007 8.015-8.004 18.667-12.413 29.995-12.413 6.039 0 11.88 1.264 17.236 3.646l57.271-56.947-187.571-21.736-245.785 245.465 230.416 230.716 245.79-245.471-21.664-187.737zm-308.464 153.722c7.817-7.818 18.213-12.125 29.271-12.125s21.453 4.306 29.271 12.125c7.819 7.818 12.125 18.214 12.125 29.271s-4.306 21.453-12.125 29.271-18.214 12.125-29.271 12.125-21.452-4.306-29.271-12.125-12.125-18.214-12.125-29.271 4.306-21.452 12.125-29.271zm60.378 205.62c-7.82 7.819-18.216 12.125-29.272 12.125s-21.452-4.306-29.271-12.124c-7.819-7.819-12.125-18.215-12.125-29.272s4.306-21.453 12.125-29.271 18.215-12.124 29.271-12.124 21.452 4.306 29.271 12.124c16.14 16.139 16.14 42.401.001 58.542zm-132.001-72.855-4.256-29.696 204.839-29.355 4.256 29.696z"/><path d="m233.132 215.856c3.044 0 5.906-1.186 8.059-3.338s3.338-5.014 3.338-8.058-1.186-5.905-3.338-8.058-5.015-3.338-8.059-3.338-5.905 1.186-8.057 3.337c-2.153 2.153-3.339 5.015-3.339 8.059s1.186 5.906 3.338 8.059c2.153 2.152 5.014 3.337 8.058 3.337z"/><path d="m234.967 340.142c-3.044 0-5.906 1.186-8.059 3.338s-3.338 5.014-3.338 8.058 1.186 5.906 3.338 8.059c2.152 2.152 5.015 3.337 8.059 3.337s5.906-1.186 8.059-3.338c4.442-4.443 4.442-11.673 0-16.116-2.153-2.152-5.015-3.338-8.059-3.338z"/><path d="m358.849 140.986c-3.321 0-6.445 1.292-8.795 3.64-2.354 2.35-3.651 5.475-3.653 8.8s1.291 6.451 3.641 8.804c2.353 2.355 5.48 3.652 8.809 3.652 3.321 0 6.445-1.293 8.796-3.641 2.353-2.349 3.649-5.474 3.651-8.799s-1.291-6.452-3.641-8.804c-2.352-2.355-5.48-3.652-8.808-3.652z"/></svg>