<svg id="Layer_1" enable-background="new 0 0 511.987 511.987" height="512" viewBox="0 0 511.987 511.987" width="512" xmlns="http://www.w3.org/2000/svg"><path d="m270.994 357.319c0 68.742 55.926 124.668 124.668 124.668h15v-56.496c0-34.774-6.93-68.62-20.596-100.597-10.57-24.731-24.748-47.311-42.251-67.397h-76.821z"/><path d="m356.994 102.635h25.507v30h-25.507z"/><path d="m356.994 147.541v-14.906h-45.667c-22.24 0-40.333 18.093-40.333 40.333h-30c0-22.24-18.094-40.333-40.333-40.333h-45.667v14.906c0 27.831 6.568 55.219 19.067 79.957h163.866c12.499-24.738 19.067-52.126 19.067-79.957z"/><path d="m255.994 423.726c-24.893 52.144-78.14 88.261-139.668 88.261h279.337c-61.53 0-114.777-36.117-139.669-88.261z"/><path d="m240.994 357.319v-99.821h-76.821c-17.503 20.086-31.681 42.666-42.251 67.397-13.667 31.977-20.596 65.822-20.596 100.597v56.496h15c68.741-.001 124.668-55.927 124.668-124.669z"/><path d="m129.486 102.635h25.424v30h-25.424z"/><path d="m255.994 129.597c12.887-16.406 32.901-26.962 55.333-26.962h45.667v-6.735c0-29.696-22.276-54.285-50.998-57.933v-37.967h-100.005v37.967c-28.721 3.647-50.998 28.237-50.998 57.933v6.735h45.667c22.433 0 42.446 10.556 55.334 26.962z"/></svg>