<svg id="Layer_1" enable-background="new 0 0 512.196 512.196" height="512" viewBox="0 0 512.196 512.196" width="512" xmlns="http://www.w3.org/2000/svg"><path d="m497.774 255.119c9.435-18.77 14.422-39.794 14.422-60.801v-2.482c0-73.155-59.516-132.672-132.672-132.672h-6.882l-189.569 220.346h-90.502c-50.929 0-92.38 41.341-92.567 92.227h284.804l81.422-101.69c4.593-5.3 10.294-6.096 13.3-6.096 6.867 0 12.798 3.645 15.867 9.75 1.233 2.454 1.885 5.202 1.885 7.947v90.089h89.265v-69.292c.001-16.352 3.883-32.717 11.227-47.326z"/><path d="m0 453.033h219.715l41.073-51.296h-260.788z"/><path d="m397.283 401.737h89.265v51.296h-89.265z"/></svg>