<svg id="Layer_1" enable-background="new 0 0 511.95 511.95" height="512" viewBox="0 0 511.95 511.95" width="512" xmlns="http://www.w3.org/2000/svg"><path d="m375.764 133.205c6.271 0 11.374-5.103 11.374-11.374 0-6.272-5.103-11.375-11.374-11.375s-11.374 5.103-11.374 11.375c0 6.271 5.103 11.374 11.374 11.374z"/><path d="m0 0v511.95h511.95v-511.95zm375.764 80.456c22.813 0 41.374 18.561 41.374 41.375s-18.561 41.374-41.374 41.374-41.374-18.56-41.374-41.374 18.561-41.375 41.374-41.375zm-239.578 0c22.813 0 41.374 18.561 41.374 41.375s-18.56 41.374-41.374 41.374-41.374-18.56-41.374-41.374 18.561-41.375 41.374-41.375zm74.632 252.135h-29.673v98.903h-89.918v-98.903h-29.673v-169.384h149.264zm60.157 115.521h-30v-381.85h30zm149.748-115.521v98.903h-89.918v-98.903h-32.349l27.928-169.384h98.76l27.928 169.384z"/><path d="m136.186 133.205c6.271 0 11.374-5.103 11.374-11.374 0-6.272-5.103-11.375-11.374-11.375s-11.374 5.103-11.374 11.375c0 6.271 5.103 11.374 11.374 11.374z"/><path d="m351.843 193.207-18.035 109.384h26.997v98.903h29.918v-98.903h26.997l-18.035-109.384z"/><path d="m121.227 401.494h29.918v-98.903h29.673v-109.384h-89.264v109.384h29.673z"/></svg>