<svg id="Layer_1" enable-background="new 0 0 511.838 511.838" height="512" viewBox="0 0 511.838 511.838" width="512" xmlns="http://www.w3.org/2000/svg"><path d="m255.919 99.463c-58.028 0-105.237 47.209-105.237 105.237s47.209 105.237 105.237 105.237 105.237-47.209 105.237-105.237-47.209-105.237-105.237-105.237zm-16.913 26.317h31.913v31.913h-31.913zm57.891 147.157h-81.957v-30h25.979v-38.122h-23.927v-30h53.927v68.122h25.979v30z"/><path d="m255.919 0c-112.872 0-204.7 91.829-204.7 204.701 0 59.312 33.131 127.943 98.473 203.987 47.758 55.58 94.805 93.895 96.784 95.498l9.443 7.652 9.443-7.652c1.979-1.604 49.026-39.918 96.784-95.498 65.342-76.044 98.473-144.675 98.473-203.987 0-112.872-91.828-204.701-204.7-204.701zm0 339.938c-74.57 0-135.237-60.667-135.237-135.237s60.667-135.238 135.237-135.238 135.237 60.667 135.237 135.237-60.667 135.238-135.237 135.238z"/></svg>