<svg id="Layer_1" enable-background="new 0 0 511.95 511.95" height="512" viewBox="0 0 511.95 511.95" width="512" xmlns="http://www.w3.org/2000/svg"><path d="m511.942.077h-511.921v311.467h511.922v-311.467zm-307.917 223.834v-135.753l118.518 66.692z"/><path d="m234.025 139.464v32.244l28.151-16.404z"/><path d="m270.011 391.464h-28.07c-13.873 0-25.16 11.287-25.16 25.16v95.25h78.391v-95.25c-.001-13.874-11.288-25.16-25.161-25.16z"/><path d="m378.4 391.464h-28.07c-13.873 0-25.159 11.287-25.159 25.16v95.25h78.39v-95.25c0-13.874-11.288-25.16-25.161-25.16z"/><path d="m511.95 416.624c0-13.874-11.286-25.16-25.159-25.16h-28.07c-13.873 0-25.16 11.287-25.16 25.16v95.25h78.39v-95.25z"/><path d="m53.23 391.464h-28.07c-13.873 0-25.16 11.286-25.16 25.16v95.25h78.391v-95.25c0-13.874-11.287-25.16-25.161-25.16z"/><path d="m161.62 391.464h-28.069c-13.873 0-25.16 11.287-25.16 25.16v95.25h78.39v-95.25c-.001-13.874-11.288-25.16-25.161-25.16z"/></svg>