<svg id="Layer_1" enable-background="new 0 0 511.936 511.936" height="512" viewBox="0 0 511.936 511.936" width="512" xmlns="http://www.w3.org/2000/svg"><path d="m147.631 208.403h54.149v-64.944c-30.152 6.691-52.958 33.093-54.149 64.944z"/><path d="m310.155 361.246-54.187-42.66-54.188 42.66v-122.843h-54.216v21.424l29.478 25.707v103.057h-88.956v-103.057l29.478-25.708v-21.423h-86.713v259.82h450.234v-259.82h-170.93z"/><path d="m196.91 113.803h-18.174c-19.324 0-35.045-15.721-35.045-35.045s15.721-35.045 35.045-35.045c34.314 0 62.231 27.917 62.231 62.231v7.859h-9.188v185.644l24.188-19.042 24.188 19.042v-185.644h-9.188v-7.859c0-34.314 27.917-62.231 62.231-62.231 19.324 0 35.045 15.721 35.045 35.045s-15.721 35.045-35.045 35.045h-23.044v94.6h201.78v-94.6h-123.981c6.502-10.123 10.292-22.146 10.292-35.045 0-35.866-29.179-65.045-65.045-65.045-32.288 0-60.749 16.681-77.231 41.873-16.483-25.193-44.944-41.873-77.231-41.873-35.866 0-65.045 29.179-65.045 65.045 0 12.899 3.79 24.922 10.292 35.045h-123.985v94.6h117.599c1.216-46.742 34.918-85.54 79.311-94.6z"/><path d="m118.086 299.177v59.414h28.956v-59.414l-14.478-12.626z"/></svg>