<svg id="Layer_1" enable-background="new 0 0 511.992 511.992" height="512" viewBox="0 0 511.992 511.992" width="512" xmlns="http://www.w3.org/2000/svg"><path d="m164.623 267.469v-36.933c18.775-6.29 32.347-24.033 32.347-44.897 0-20.865-13.572-38.608-32.347-44.898v-14.431c0-14.507 6.348-28.177 17.416-37.506 12.236-10.314 18.882-26.023 17.779-42.022-1.717-24.883-21.776-44.942-46.658-46.657-14.105-.974-27.559 3.787-37.865 13.406-10.162 9.484-15.989 22.893-15.989 36.789h30c0-5.693 2.294-10.97 6.459-14.857 4.159-3.882 9.595-5.801 15.331-5.408 10.022.691 18.101 8.77 18.792 18.793.454 6.584-2.165 12.788-7.185 17.019-17.846 15.042-28.081 37.073-28.081 60.444v14.431c-18.775 6.29-32.347 24.033-32.347 44.898s13.572 38.608 32.347 44.897v36.933l-60.692 95.464h151.384z"/><path d="m149.623 511.992 75.691-119.058h-151.384z"/><path d="m377.37 267.469v-36.933c18.775-6.29 32.347-24.033 32.347-44.897 0-20.865-13.572-38.608-32.347-44.898v-14.431c0-14.507 6.348-28.177 17.415-37.506 12.237-10.314 18.883-26.023 17.779-42.022-1.717-24.883-21.775-44.942-46.657-46.657-14.12-.976-27.561 3.788-37.865 13.406-10.161 9.485-15.989 22.894-15.989 36.789h30c0-5.693 2.294-10.969 6.459-14.857 4.159-3.882 9.593-5.801 15.332-5.408 10.021.691 18.101 8.77 18.791 18.793.455 6.584-2.164 12.787-7.184 17.019-17.846 15.042-28.081 37.073-28.081 60.444v14.431c-18.775 6.29-32.347 24.033-32.347 44.898s13.572 38.608 32.347 44.897v36.933l-60.692 95.465h151.384z"/><path d="m362.37 511.992 75.692-119.058h-151.384z"/></svg>