<svg id="Layer_1" enable-background="new 0 0 511.97 511.97" height="512" viewBox="0 0 511.97 511.97" width="512" xmlns="http://www.w3.org/2000/svg"><path d="m154.652 458.967h202.666v53.003h-202.666z"/><path d="m123.686 80.003h204.516v102.41h-204.516z"/><path d="m478.288 0h-444.606v511.97h90.97v-83.003h262.666v83.003h90.97zm-384.602 50.003h264.516v162.41h-264.516zm52.541 335.488h-30v-30.001h30zm0-50.003h-30v-30.002h30zm0-50.004h-30v-30.001h30zm50.003 100.007h-30v-30.001h30zm0-50.003h-30v-30.002h30zm0-50.004h-30v-30.001h30zm50.003 100.007h-30v-30.001h30zm0-50.003h-30v-30.002h30zm0-50.004h-30v-30.001h30zm149.511 50.003h-103.67v-30h103.67zm22.54-139.275h-30v-30.002h30zm0-50.004h-30v-30.001h30zm0-50.002h-30v-30.002h30z"/></svg>