<svg id="Layer_1" enable-background="new 0 0 511.926 511.926" height="512" viewBox="0 0 511.926 511.926" width="512" xmlns="http://www.w3.org/2000/svg"><path d="m0 31.797v448.331h511.926v-448.331zm90.005 388.328h-30.002v-30h30.002zm0-298.324h-30.002v-30h30.002zm165.942 295.074c-88.233 0-160.016-71.783-160.016-160.016s71.782-160.016 160.016-160.016 160.016 71.783 160.016 160.016-71.782 160.016-160.016 160.016zm195.976 3.25h-30.002v-30h30.002zm0-298.324h-30.002v-30h30.002z"/><path d="m255.947 126.843c-71.69 0-130.016 58.325-130.016 130.016s58.325 130.016 130.016 130.016 130.016-58.325 130.016-130.016-58.325-130.016-130.016-130.016zm15.001 209.384h-30.002v-30h30.002zm18.778-43.794c-9.022-9.023-21.019-13.992-33.778-13.992s-24.756 4.969-33.778 13.991l-21.213-21.213c14.688-14.689 34.218-22.778 54.991-22.778 20.772 0 40.302 8.089 54.991 22.778zm48.755-46.756c-22.046-22.045-51.357-34.187-82.534-34.187s-60.488 12.141-82.534 34.187l-21.213-21.213c27.712-27.712 64.557-42.973 103.747-42.973s76.035 15.261 103.747 42.973z"/></svg>