<svg id="Layer_1" enable-background="new 0 0 511.561 511.561" height="512" viewBox="0 0 511.561 511.561" width="512" xmlns="http://www.w3.org/2000/svg"><path d="m369.186 0-28.351 28.237-28.352-28.237-28.351 28.237-28.352-28.237-28.352 28.237-28.35-28.237-28.352 28.237-28.351-28.237-43.352 43.177v425.207l43.352 43.177 28.351-28.237 28.352 28.237 28.351-28.237 28.352 28.237 28.352-28.237 28.351 28.237 28.352-28.237 28.351 28.237 43.352-43.177v-425.207zm-129.4 156.425 1.226 4.313c3.465 12.19 7.953 16.939 16.007 16.939 4.255 0 7.305-1.245 9.594-3.917 1.778-2.187 2.679-5.042 2.679-8.485 0-5.42-3.793-9.055-15.031-14.407-7.466-3.393-11.204-5.68-15.941-9.759-5.388-4.789-7.879-10.629-7.879-18.415 0-11.804 7.276-21.776 18.011-25.161v-11.708h17.133v11.8c7.229 2.165 12.894 7.209 16.867 15.028l1.396 2.746-14.779 9.573-1.784-3.178c-3.729-6.643-6.846-7.902-11.296-7.902-4.072 0-7.385 3.544-7.385 7.9 0 2.929.636 5.127 3.875 7.659l.17.117c1.878 1.292 3.365 2.314 4.562 2.969l6.914 3.586c5.101 2.55 7.777 3.939 12.326 7.385 7.296 5.434 10.592 11.827 11 21.363l.003.146c0 8.102-2.643 15.072-7.854 20.717-3.863 4.237-8.571 7.075-14.016 8.452v11.688h-17.133v-11.591c-12.134-3.151-21.152-12.881-23.857-26.002l-.488-2.367zm97.747 244.104h-163.504v-30h163.504zm0-60.004h-163.504v-30h163.504zm0-60.004h-163.504v-30h163.504z"/></svg>