<svg id="Layer_1" enable-background="new 0 0 511.998 511.998" height="512" viewBox="0 0 511.998 511.998" width="512" xmlns="http://www.w3.org/2000/svg"><path d="m0 409.126 46.677 77.794h418.646l46.676-77.794v-176.594h-511.999zm255.999-136.511c45.276 0 82.111 36.835 82.111 82.111s-36.835 82.111-82.111 82.111-82.111-36.835-82.111-82.111 36.835-82.111 82.111-82.111z"/><ellipse cx="255.999" cy="354.727" rx="52.111" ry="52.111" transform="matrix(.707 -.707 .707 .707 -175.849 284.916)"/><path d="m26.779 152.194h458.439v50.338h-458.439z"/><path d="m455.05 119.565c0-25.239-9.828-48.966-27.675-66.813-17.847-17.846-41.574-27.674-66.813-27.674h-15v15c0 17.187-13.982 31.169-31.169 31.169h-181.497c-33.12 0-61.339 21.318-71.7 50.947h393.854z"/></svg>