<svg id="Layer_1" enable-background="new 0 0 512.021 512.021" height="512" viewBox="0 0 512.021 512.021" width="512" xmlns="http://www.w3.org/2000/svg"><path d="m256.011 359.643c23.89 0 43.469-18.804 44.719-42.388h-89.439c1.25 23.584 20.83 42.388 44.72 42.388z"/><path d="m472.011 90.004v-90.004h-432v90.004h80.992v83.713c-37.637 35.761-61.139 86.266-61.139 142.159 0 93.795 66.181 172.41 154.295 191.637v-130.708c-19.858-13.459-32.934-36.204-32.934-61.948v-84.992h30v57.389h29.785v-57.389h30v57.389h29.785v-57.389h30v84.992c0 25.743-13.076 48.489-32.934 61.948v130.707c88.114-19.227 154.295-97.842 154.295-191.637 0-55.893-23.502-106.397-61.139-142.159v-83.712zm-110.992 60.271c-30.38-19.332-66.408-30.546-105.008-30.546s-74.628 11.214-105.008 30.546v-60.271h210.016z"/><path d="m256.011 389.643c-4.033 0-7.99-.331-11.852-.949v122.959c3.922.235 7.871.368 11.852.368s7.929-.134 11.852-.368v-122.959c-3.863.617-7.819.949-11.852.949z"/></svg>