<svg id="Layer_1" enable-background="new 0 0 512.016 512.016" height="512" viewBox="0 0 512.016 512.016" width="512" xmlns="http://www.w3.org/2000/svg"><path d="m427.624 512.016c28.031 0 50.835-22.805 50.835-50.836v-139.336c0-28.031-22.805-50.836-50.835-50.836h-54.668v241.008z"/><path d="m237.452 321.844v139.336c0 28.031 22.805 50.836 50.835 50.836h54.668v-241.008h-54.668c-28.031 0-50.835 22.805-50.835 50.836z"/><path d="m478.459 190.172v-139.336c0-28.031-22.805-50.836-50.835-50.836h-139.337c-28.031 0-50.835 22.805-50.835 50.836v139.336c0 28.031 22.805 50.836 50.835 50.836h139.336c28.031 0 50.836-22.805 50.836-50.836z"/><path d="m77.161 466.818c11.673 0 21.17-9.497 21.17-21.17v-179.746c-2.951.437-5.968.67-9.038.67h-24.264c-3.071 0-6.087-.233-9.038-.67v179.746c0 11.673 9.497 21.17 21.17 21.17z"/><path d="m65.029 236.572h24.264c17.354 0 31.473-14.118 31.473-31.473v-55.668c0-17.354-14.119-31.472-31.473-31.472h-24.264c-17.354 0-31.473 14.118-31.473 31.472v55.669c.001 17.354 14.119 31.472 31.473 31.472z"/></svg>