<svg id="Layer_1" enable-background="new 0 0 511.574 511.574" height="512" viewBox="0 0 511.574 511.574" width="512" xmlns="http://www.w3.org/2000/svg"><path d="m104.435 276.545c30.712 24.994 69.092 39.228 108.601 40.397v-36.784h85.504v36.784c39.509-1.169 77.889-15.403 108.601-40.397 28.897-23.517 49.847-55.617 59.86-91.356v-59.054h-75.609c-5.054-70.399-63.94-126.135-135.605-126.135s-130.551 55.736-135.603 126.135h-75.61v59.054c10.014 35.739 30.964 67.839 59.861 91.356zm151.352-246.545c55.114 0 100.527 42.298 105.502 96.135h-211.004c4.975-53.837 50.388-96.135 105.502-96.135z"/><path d="m496.338 353.544-21.251-111.122c-12.686 21.795-29.255 41.313-49.011 57.391-36.046 29.336-81.149 45.967-127.537 47.143v37.208h-85.504v-37.208c-46.388-1.176-91.491-17.807-127.537-47.143-19.755-16.078-36.325-35.596-49.011-57.391l-21.251 111.122c-8.751 38.534.343 78.346 24.973 109.264 24.688 30.992 61.573 48.767 101.197 48.767h228.763c39.624 0 76.508-17.774 101.197-48.767 24.629-30.918 33.723-70.73 24.972-109.264z"/><path d="m243.035 310.157h25.504v44.006h-25.504z"/></svg>