<svg id="Layer_1" enable-background="new 0 0 511.982 511.982" height="512" viewBox="0 0 511.982 511.982" width="512" xmlns="http://www.w3.org/2000/svg"><path d="m47.658 167.914v59.309h372.646v-29.309h25.398c20.005 0 36.279 16.275 36.279 36.28s-16.274 36.279-36.279 36.279h-25.398v-13.251h-372.646v37.441c0 43.802 20.48 82.906 52.361 108.255l-100.019.001v15c0 42.254 34.376 76.631 76.631 76.631h314.701c42.255 0 76.631-34.377 76.631-76.632v-15h-100.019c30.464-24.222 50.508-61.006 52.23-102.445h25.529c36.547 0 66.279-29.732 66.279-66.279s-29.732-66.28-66.279-66.28z"/><path d="m214.159 121.946 24.962 16.641 11.612-17.419c10.424-15.635 10.424-35.842 0-51.479-3.685-5.527-3.685-12.67 0-18.197l11.613-17.419-24.961-16.641-11.614 17.419c-10.423 15.637-10.423 35.843 0 51.479 3.685 5.527 3.685 12.67 0 18.197z"/><path d="m280.069 121.945 24.961 16.643 11.614-17.42c10.422-15.636 10.422-35.842-.001-51.479-3.685-5.527-3.685-12.67 0-18.197l11.612-17.419-24.961-16.641-11.612 17.419c-10.425 15.637-10.424 35.844-.001 51.478 3.685 5.528 3.685 12.672.001 18.197z"/><path d="m148.249 121.946 24.961 16.641 11.613-17.419c10.424-15.635 10.424-35.842 0-51.479-3.685-5.527-3.685-12.67 0-18.197l11.613-17.419-24.961-16.641-11.613 17.419c-10.424 15.637-10.424 35.844 0 51.479 3.685 5.527 3.685 12.67 0 18.197z"/></svg>