<svg id="Layer_1" enable-background="new 0 0 512.229 512.229" height="512" viewBox="0 0 512.229 512.229" width="512" xmlns="http://www.w3.org/2000/svg"><path d="m317.218 120.714h73.007v110.809h-73.007z"/><path d="m493.622 231.522 18.607-110.808h-92.004v110.808z"/><path d="m106.049 261.522 14.262 160.608c-17.668 6.57-30.291 23.6-30.291 43.527 0 25.599 20.825 46.424 46.424 46.424 25.598 0 46.423-20.825 46.423-46.424 0-5.781-1.071-11.314-3.01-16.423h206.728c-1.939 5.109-3.01 10.642-3.01 16.423 0 25.599 20.825 46.424 46.423 46.424s46.423-20.825 46.423-46.424c0-25.598-20.825-46.423-46.423-46.423h-279.826l-4.165-46.902h38.205v-110.81z"/><path d="m184.212 120.714h-60.548l-10.706-120.567h-112.958v30h85.504l17.881 201.375h80.827z"/><path d="m214.212 261.522h73.006v110.81h-73.006z"/><path d="m317.218 261.522h73.007v110.81h-73.007z"/><path d="m420.225 372.332h49.753l18.606-110.81h-68.359z"/><path d="m214.212 120.714h73.006v110.809h-73.006z"/></svg>