<svg id="Layer_1" enable-background="new 0 0 512.036 512.036" height="512" viewBox="0 0 512.036 512.036" width="512" xmlns="http://www.w3.org/2000/svg"><path d="m0 67.949v376.139h512.036v-376.139zm94.271 318.291h-30v-260.444h30zm58.916 0h-30v-30.002h30zm0-60.004h-30v-200.44h30zm58.916 60.004h-30v-30.002h30zm0-60.004h-30v-200.44h30zm58.915 60.004h-30v-260.444h30zm58.916 0h-30v-30.002h30zm0-60.004h-30v-200.44h30zm58.915 60.004h-30v-30.002h30zm0-60.004h-30v-200.44h30zm58.916 60.004h-30v-260.444h30z"/></svg>