<svg id="Layer_1" enable-background="new 0 0 511.998 511.998" height="512" viewBox="0 0 511.998 511.998" width="512" xmlns="http://www.w3.org/2000/svg"><path d="m282.966 488.137h229.032l-5.448-58.924h-231.212z"/><path d="m488.388 232.758h-41.278c-55.497 0-100.647-45.149-100.647-100.646v-8.638h-180.918v8.638c0 55.497-45.15 100.646-100.647 100.646h-41.288l-15.389 166.455h232.323l15.255-117.834h.4l15.255 117.834h232.323z"/><path d="m200.849 23.861h-157.926l-6.435 69.613h164.361z"/><path d="m475.51 93.474-6.435-69.613h-157.926v69.613z"/><path d="m230.849 23.861h50.3v69.612h-50.3z"/><path d="m376.462 132.111c0 38.955 31.692 70.646 70.647 70.646h38.505l-7.33-79.284h-101.822z"/><path d="m0 488.137h229.032l7.628-58.924h-231.212z"/><path d="m135.545 132.111v-8.638h-101.831l-7.33 79.284h38.514c38.956.001 70.647-31.691 70.647-70.646z"/></svg>