<svg id="Layer_1" enable-background="new 0 0 512.039 512.039" height="512" viewBox="0 0 512.039 512.039" width="512" xmlns="http://www.w3.org/2000/svg"><path d="m410.507 66.76h-232.712l-21.516 73.722h275.726z"/><path d="m0 170.482h76.262v274.796h-76.262z"/><path d="m294.15 172.482c-67.214 0-121.896 54.683-121.896 121.896s54.682 121.896 121.896 121.896 121.896-54.683 121.896-121.896-54.682-121.896-121.896-121.896zm0 212.767c-50.106 0-90.871-40.765-90.871-90.87s40.764-90.87 90.871-90.87c50.105 0 90.87 40.765 90.87 90.87s-40.765 90.87-90.87 90.87z"/><path d="m446.046 294.379c0 77.888-58.931 142.26-134.545 150.899h200.537v-274.796h-130.104c38.77 27.55 64.112 72.819 64.112 123.897z"/><ellipse cx="294.15" cy="294.379" rx="60.87" ry="60.87" transform="matrix(.987 -.16 .16 .987 -43.356 50.919)"/><path d="m142.254 294.379c0-51.077 25.342-96.346 64.112-123.896h-100.104v274.796h170.536c-75.614-8.64-134.544-73.012-134.544-150.9z"/><path d="m0 95.739h76.26v44.743h-76.26z"/></svg>