<svg id="Layer_1" enable-background="new 0 0 512.295 512.295" height="512" viewBox="0 0 512.295 512.295" width="512" xmlns="http://www.w3.org/2000/svg"><path d="m309.382 276.64 16.154-46.307h-19.949v-53.205h-34.459v-17.911c0-28.397-23.104-51.501-51.501-51.501h-89.886c-11.855 0-21.5-9.646-21.5-21.501s9.645-21.5 21.5-21.5h192.382c35.684 0 64.715-29.031 64.715-64.715h-30c0 19.142-15.573 34.715-34.715 34.715h-192.381c-28.397 0-51.5 23.104-51.5 51.501s23.103 51.5 51.5 51.5h89.886c11.855 0 21.501 9.646 21.501 21.501v17.911h-34.421v53.205h-19.949l16.154 46.307z"/><path d="m366.843 365.428h29.991v29.991h-29.991z"/><path d="m470.246 271.178c-26.576-26.339-61.82-40.845-99.239-40.845h-13.696l-26.622 76.307h-149.083l-26.622-76.307h-13.696c-37.42 0-72.663 14.506-99.239 40.845-26.558 26.322-41.38 61.399-41.734 98.771-.357 37.591 14.072 73.155 40.631 100.141 26.544 26.972 61.851 41.959 99.415 42.202l.927.003c31.836 0 63.047-10.916 87.883-30.738 7.6-6.064 17.18-9.405 26.977-9.404 9.797 0 19.378 3.34 26.978 9.404 24.834 19.82 56.045 30.737 87.883 30.738l.928-.003c37.563-.243 72.87-15.23 99.414-42.202 26.559-26.985 40.988-62.55 40.631-100.141-.357-37.372-15.179-72.449-41.736-98.771zm-292.574 123.915h-32.216v32.216h-30v-32.216h-32.215v-30h32.216v-32.217h30v32.217h32.216v30zm249.164.331h-29.998v29.997h-30v-29.997h-29.997v-30h29.997v-29.998h30v29.998h29.998z"/></svg>