<svg id="Layer_1" enable-background="new 0 0 511.787 511.787" height="512" viewBox="0 0 511.787 511.787" width="512" xmlns="http://www.w3.org/2000/svg"><path d="m240.894 271.294h30v30.002h-30z"/><path d="m180.89 321.297h30v30.002h-30z"/><path d="m300.897 321.297h30v30.002h-30z"/><path d="m330.899 371.3h30v30.002h-30z"/><path d="m150.888 371.3h30v30.002h-30z"/><path d="m360.901 421.303h30v30.002h-30z"/><path d="m120.886 421.303h30v30.002h-30z"/><path d="m240.894 471.307h30v30.001h-30z"/><path d="m240.894 421.303h30v30.002h-30z"/><path d="m240.894 371.3h30v30.002h-30z"/><path d="m240.894 321.297h30v30.002h-30z"/><path d="m390.903 471.307h30v30.001h-30z"/><path d="m350.9 271.294h30v30.002h-30z"/><path d="m380.902 321.297h30v30.002h-30z"/><path d="m410.904 371.3h30v30.002h-30z"/><path d="m440.906 421.303h30v30.002h-30z"/><path d="m470.908 471.307h30v30.001h-30z"/><path d="m90.884 471.307h30v30.001h-30z"/><path d="m130.887 271.294h30v30.002h-30z"/><path d="m100.885 321.297h30v30.002h-30z"/><path d="m70.883 371.3h30v30.002h-30z"/><path d="m40.881 421.303h30v30.002h-30z"/><path d="m10.879 471.307h30v30.001h-30z"/><path d="m0 10.479h511.787v61.004h-511.787z"/><path d="m210.892 169.895v38.256h-58.334v30h206.672v-30h-58.334v-38.256c25.082-13.863 43.131-38.935 47.367-68.411h-184.738c4.235 29.476 22.285 54.547 47.367 68.411z"/></svg>