<svg id="Layer_1" enable-background="new 0 0 511.979 511.979" height="512" viewBox="0 0 511.979 511.979" width="512" xmlns="http://www.w3.org/2000/svg"><path d="m221.754 257.338h146.896c31.241 0 56.658 25.417 56.658 56.658v46.467h-22.871v78.365h22.871v46.467c0 9.643-2.427 18.727-6.694 26.684h40.88l20.001-328.358h-262.231z"/><path d="m511.713 153.62v-60.004h-148.333v-93.616h-97.666v30h67.666v63.616h-148.334v60.004z"/><path d="m368.65 287.338h-341.726c-14.699 0-26.658 11.959-26.658 26.658v16.467h395.043v-16.467c0-14.699-11.959-26.658-26.659-26.658z"/><path d="m.266 468.828v16.467c0 14.7 11.959 26.659 26.658 26.659h341.726c14.699 0 26.658-11.959 26.658-26.659v-16.467z"/><path d="m82.894 385.151c13.128 3.282 27.009 3.282 40.136 0 17.889-4.472 36.799-4.474 54.689 0 13.127 3.281 27.007 3.281 40.137 0 17.888-4.473 36.799-4.475 54.688 0 13.128 3.281 27.007 3.281 40.137 0 17.888-4.473 36.799-4.475 54.688 0l5.068 1.267v-25.955h-349.3v25.955l5.068-1.267c17.889-4.471 36.8-4.473 54.689 0z"/><path d="m372.438 438.828v-21.487l-12.344-3.085c-13.129-3.283-27.008-3.282-40.136-.001-17.89 4.474-36.799 4.473-54.689.001-13.129-3.283-27.008-3.281-40.136-.001-17.889 4.474-36.8 4.473-54.689.001-13.129-3.283-27.008-3.282-40.136-.001-17.89 4.474-36.801 4.473-54.689.001-13.129-3.283-27.008-3.282-40.137-.001l-12.344 3.086v21.488h349.3z"/></svg>