<svg id="Layer_1" enable-background="new 0 0 512.325 512.325" height="512" viewBox="0 0 512.325 512.325" width="512" xmlns="http://www.w3.org/2000/svg"><path d="m512.325 21.468-21.153-21.274-57.802 57.475 21.153 21.273-57.101 56.778c7.18 15.68 4.321 34.865-8.578 47.748-8.016 8.005-18.668 12.413-29.996 12.413-11.349 0-22.015-4.422-30.035-12.452-16.54-16.562-16.522-43.491.039-60.03 8.015-8.005 18.668-12.413 29.996-12.413 6.039 0 11.879 1.264 17.235 3.645l57.278-56.955-187.576-21.726-245.785 245.465 230.416 230.716 245.79-245.47-21.656-187.744zm-203.124 242.383-1.542 4.729-27.805-5.943 1.592-5.666c3.327-11.842 1.205-16.84-3.875-21.92-4.649-4.649-12.479-4.386-17.452.588-3.345 3.344-5.127 6.58-4.321 13.169l.061.328c.67 3.62 1.2 6.485 1.819 8.599l3.8 11.989c2.913 8.736 4.382 13.378 5.642 22.506 2.127 14.535-1.411 25.599-11.832 36.953l-.163.171c-9.25 9.25-20.226 14.192-32.622 14.687-9.249.427-17.865-1.708-25.654-6.353l-13.345 13.345-19.563-19.563 13.235-13.235c-10.256-17.453-9.445-38.859 2.448-56.929l2.145-3.259 28.738 7.067-3.525 6.324c-9.962 17.875-10.261 28.421-1.065 37.618 4.858 4.858 9.762 6.919 15.427 6.483 4.527-.467 8.816-2.698 12.747-6.629 6.189-6.189 6.008-14.67-.713-33.614-4.651-12.4-6.308-19.278-7.059-29.345-.684-11.62 3.14-21.132 12.03-30.022 13.478-13.478 33.171-16.556 49.294-8.165l13.367-13.367 19.563 19.563-13.473 13.473c5.782 10.726 6.492 22.953 2.101 36.418z"/><path d="m358.849 140.986c-3.322 0-6.446 1.292-8.797 3.64-4.856 4.851-4.861 12.748-.011 17.604 2.352 2.354 5.479 3.651 8.808 3.651 3.322 0 6.446-1.293 8.796-3.64 4.856-4.851 4.862-12.748.012-17.604-2.352-2.354-5.48-3.651-8.808-3.651z"/></svg>