<svg id="Layer_1" enable-background="new 0 0 511.869 511.869" height="512" viewBox="0 0 511.869 511.869" width="512" xmlns="http://www.w3.org/2000/svg"><path d="m511.869 100.737h-371.584v37.001h-30v-37.001h-110.285v310.395h110.285v-37.379h30v37.379h371.584zm-371.584 244.015h-30v-40.003h30zm0-69.005h-30v-40.002h30zm0-69.004h-30v-40.003h30zm71.916-9.319c0-24.422 19.868-44.29 44.29-44.29s44.29 19.868 44.29 44.29-19.868 44.29-44.29 44.29-44.29-19.868-44.29-44.29zm21.007 141.395 137.689-183.758 24.008 17.988-137.689 183.759zm140.125 16.858c-24.422 0-44.29-19.868-44.29-44.29s19.868-44.29 44.29-44.29 44.29 19.868 44.29 44.29-19.868 44.29-44.29 44.29z"/><circle cx="256.491" cy="197.424" r="14.29"/><circle cx="373.333" cy="311.387" r="14.29"/></svg>