<svg id="Layer_1" enable-background="new 0 0 511.916 511.916" height="512" viewBox="0 0 511.916 511.916" width="512" xmlns="http://www.w3.org/2000/svg"><path d="m101.945 237.416c8.216-4.512 17.641-7.085 27.658-7.085h252.711c10.017 0 19.442 2.572 27.658 7.085.179-22.898 12.08-43.045 29.987-54.744v-90.735h-368v90.736c17.906 11.698 29.807 31.845 29.986 54.743z"/><path d="m382.313 260.331h-252.71c-15.243 0-27.645 12.4-27.645 27.644v10.29h308v-10.29c0-15.244-12.401-27.644-27.645-27.644z"/><path d="m439.958 328.265h-368v-90.329c0-19.839-16.14-35.979-35.979-35.979s-35.979 16.14-35.979 35.979v153.776h35.997v28.268h30v-28.268h379.922v28.268h30v-28.268h35.997v-153.776c0-19.839-16.14-35.979-35.979-35.979s-35.979 16.141-35.979 35.979z"/></svg>