<svg id="Layer_1" enable-background="new 0 0 511.756 511.756" height="512" viewBox="0 0 511.756 511.756" width="512" xmlns="http://www.w3.org/2000/svg"><path d="m0 407.98h511.756v90.006h-511.756z"/><path d="m402.724 308.21c6.5-17.332 9.79-35.656 9.79-54.735 0-75.582-53.832-138.825-125.167-153.408l40.35-43.567-42.73-42.73h-58.051l-42.73 42.73 40.35 43.567c-71.336 14.583-125.167 77.826-125.167 153.408 0 18.773 3.371 37.333 9.844 54.722-39.141 2.651-71.081 31.902-77.857 69.784h449.047c-6.768-37.825-38.62-67.043-77.679-69.771zm-236.007-.233c-9.89-16.166-15.267-34.925-15.267-54.502 0-57.616 46.874-104.49 104.49-104.49s104.49 46.874 104.49 104.49c0 19.582-5.374 38.34-15.261 54.502z"/></svg>