<svg id="Layer_1" enable-background="new 0 0 511.988 511.988" height="512" viewBox="0 0 511.988 511.988" width="512" xmlns="http://www.w3.org/2000/svg"><path d="m167.035 103.392c-58.275 0-107.025 41.553-118.183 96.585h236.366c-11.158-55.033-59.907-96.585-118.183-96.585z"/><path d="m10.684 229.977v28.328c0 77.069 62.7 139.77 139.77 139.77h52.082v83.914h-76.866v30h258.085v-30h-74.302v-83.914h52.082c77.069 0 139.77-62.7 139.77-139.77v-28.328z"/><path d="m457.858 29.719-21.212-21.213-66.955 66.954c-7.454-17.241-18.769-32.742-33.226-45.185-22.685-19.523-51.718-30.275-81.753-30.275-30.172 0-59.307 10.839-82.036 30.52-14.458 12.519-25.742 28.09-33.142 45.397 8.92-1.653 18.11-2.525 27.501-2.525 32.511 0 62.647 10.358 87.286 27.944 25.097-17.828 55.428-27.688 86.77-27.688 9.502 0 18.797.9 27.812 2.6l-27.405 27.405c-.136 0-.271-.005-.407-.005-23.047 0-44.823 6.306-63.577 18.121 19.721 21.302 33.374 48.293 38.185 78.207h142.844c-8.493-42.657-39.718-77.213-80.466-90.477z"/></svg>