<svg id="Layer_1" enable-background="new 0 0 511.725 511.725" height="512" viewBox="0 0 511.725 511.725" width="512" xmlns="http://www.w3.org/2000/svg"><path d="m464.195 212.382v-212.382h-193.333v212.382zm-123.248-40.004h-30.002v-30h30.002zm-30.668-122.375h104.5v30h-104.5z"/><path d="m364.191 484.766h70.002v26.959h-70.002z"/><path d="m77.531 484.766h70.002v26.959h-70.002z"/><path d="m464.195 454.764v-212.382h-193.333v212.382zm-123.248-40.002h-30.002v-30h30.002zm73.832-122.375v30h-104.5v-30z"/><path d="m240.862 454.764v-212.382h-193.333v212.382zm-153.918-162.377h104.5v30h-104.5zm0 122.375v-30h30.002v30z"/><path d="m240.862 0h-193.333v212.382h193.333zm-123.916 172.378h-30.002v-30h30.002zm-30.002-92.375v-30h104.5v30z"/></svg>