<svg id="Layer_1" enable-background="new 0 0 512.025 512.025" height="512" viewBox="0 0 512.025 512.025" width="512" xmlns="http://www.w3.org/2000/svg"><path d="m140.15 250.309c-14.212 0-25.775 11.563-25.775 25.775v72.437h51.551v-72.437c0-14.212-11.563-25.775-25.776-25.775z"/><path d="m259.207 157.029h-238.113v354.988h30v-36.935h178.113v36.935h30zm-30 288.054h-178.113v-33.281h178.113zm0-63.282h-178.113v-33.28h33.281v-72.437c0-30.755 25.021-55.775 55.775-55.775s55.776 25.021 55.776 55.775v72.437h33.281z"/><path d="m462.658 426.969c-7.839 0-14.961-4.628-18.146-11.792l-52.113-117.227c-18.224-40.992-58.512-67.769-103.19-68.882v87.625c10.466 3.91 19.188 11.887 23.887 22.456l53.399 120.117c14.232 32.018 46.069 52.706 81.108 52.706h64.423v-85.004h-49.368z"/><path d="m280.3 127.029v-35.297l-140.15-91.724-140.15 91.724v35.297z"/></svg>