<svg id="Layer_1" enable-background="new 0 0 512.079 512.079" height="512" viewBox="0 0 512.079 512.079" width="512" xmlns="http://www.w3.org/2000/svg"><path d="m177.994 287.758-8.956 35.164h-97.503l-8.93-35.062-49.676 26.586 4.027 42.851 65.393 19.022 11.5 28.747h52.881l11.519-28.748 65.369-19.019 4.068-43.288z"/><path d="m167.028 435.066h-93.489l-13.611-34.026-39.953-11.622 1.894 20.151c2.308 24.563 13.626 47.238 31.87 63.848 18.243 16.608 41.877 25.756 66.549 25.756 24.671 0 48.306-9.147 66.549-25.756s29.562-39.284 31.87-63.848l1.893-20.149-39.938 11.621z"/><path d="m75.023 107.758h90.527l16.631 148.284 48.542 25.646 9.106-96.898c3.126-33.268-3.64-66.378-19.568-95.752s-39.986-53.109-69.573-68.638c-9.34-4.902-19.853-7.494-30.401-7.494s-21.061 2.592-30.402 7.494c-29.587 15.529-53.644 39.263-69.573 68.637s-22.695 62.484-19.568 95.752l9.14 97.259 48.502-25.957z"/><path d="m145.096 194.545h-49.618l-3.005 26.787h55.627z"/><path d="m138.727 137.758h-36.881l-3.004 26.787h42.889z"/><path d="m89.109 251.332-1.483 13.217 7.226 28.373h50.869l7.226-28.373-1.482-13.217z"/><path d="m416.602 194.545h-49.619l-3.004 26.787h55.627z"/><path d="m365.355 405.066h52.881l11.519-28.748 65.369-19.019 4.068-43.288-49.692-26.253-8.956 35.164h-97.503l-8.93-35.062-49.677 26.586 4.027 42.851 65.394 19.022z"/><path d="m410.233 137.758h-36.881l-3.004 26.787h42.889z"/><path d="m438.534 435.066h-93.489l-13.611-34.026-39.953-11.622 1.894 20.151c2.308 24.563 13.626 47.238 31.87 63.848 18.243 16.608 41.877 25.756 66.549 25.756 24.671 0 48.306-9.147 66.549-25.756s29.562-39.284 31.87-63.848l1.893-20.149-39.938 11.621z"/><path d="m346.529 107.758h90.527l16.631 148.284 48.542 25.646 9.106-96.898c3.126-33.268-3.64-66.378-19.568-95.752s-39.986-53.108-69.573-68.638c-9.34-4.901-19.853-7.493-30.401-7.493s-21.061 2.592-30.402 7.494c-29.587 15.528-53.645 39.263-69.573 68.637s-22.695 62.484-19.568 95.752l9.14 97.259 48.502-25.957z"/><path d="m360.614 251.332-1.482 13.217 7.226 28.373h50.869l7.226-28.373-1.482-13.217z"/></svg>