<svg id="Layer_1" enable-background="new 0 0 512.004 512.004" height="512" viewBox="0 0 512.004 512.004" width="512" xmlns="http://www.w3.org/2000/svg"><path d="m437.316 183.011h-49.978v-51.675c.001-72.419-58.917-131.336-131.336-131.336s-131.337 58.917-131.337 131.336v51.675h-49.977l-11.987 255.99h386.602zm-252.647-51.675c0-39.333 32-71.332 71.333-71.332s71.333 31.999 71.333 71.332v51.838h-142.666zm71.333 264.708c-42.695 0-77.43-34.735-77.43-77.431s34.735-77.43 77.43-77.43 77.431 34.734 77.431 77.43-34.736 77.431-77.431 77.431z"/><path d="m59.282 512.004h393.439l-2.013-43.003h-389.412z"/><path d="m256.002 271.184c-26.153 0-47.43 21.276-47.43 47.43s21.277 47.431 47.43 47.431 47.431-21.277 47.431-47.431-21.278-47.43-47.431-47.43z"/></svg>