<svg id="Layer_1" enable-background="new 0 0 511.99 511.99" height="512" viewBox="0 0 511.99 511.99" width="512" xmlns="http://www.w3.org/2000/svg"><path d="m248.367 381.706c-5.703 0-11.216.815-16.448 2.305l-26.939-43.308-28.431-330.724h-44.939l-28.432 330.733-26.822 43.229c-5.159-1.445-10.589-2.235-16.202-2.235-33.17 0-60.154 26.984-60.154 60.152s26.984 60.152 60.152 60.152 60.152-26.984 60.152-60.152c0-16.76-6.896-31.933-17.992-42.852l23.848-38.435h55.848l24.016 38.609c-10.99 10.905-17.809 26.009-17.809 42.677 0 33.168 26.984 60.152 60.152 60.152s60.152-26.984 60.152-60.152-26.984-60.151-60.152-60.151zm-188.215 90.305c-16.626 0-30.152-13.527-30.152-30.153s13.526-30.152 30.152-30.152 30.152 13.526 30.152 30.152-13.526 30.153-30.152 30.153zm188.215 0c-16.626 0-30.152-13.526-30.152-30.152s13.526-30.152 30.152-30.152 30.152 13.526 30.152 30.152-13.526 30.152-30.152 30.152z"/><path d="m345.948 9.979v30h48.051v35.993h-48.051v30h48.051v35.994h-48.051v30h48.051v35.993h-48.051v30h48.051v35.993h-48.051v30h48.051v35.993h-48.051v30h48.051v35.993h-48.051v30h48.051v35.993h-48.051v30h107.693c32.174 0 58.349-26.175 58.349-58.349v-375.253c0-32.174-26.175-58.35-58.349-58.35z"/></svg>