<svg id="Layer_1" enable-background="new 0 0 512.01 512.01" height="512" viewBox="0 0 512.01 512.01" width="512" xmlns="http://www.w3.org/2000/svg"><path d="m465.008 191.821v30h-20.002v80.005h67.004v-200.011h-512.01v200.011h67.004v-80.005h-20.002v-30z"/><path d="m97.004 370.476v39.719h39.719c-2.314-20.828-18.892-37.406-39.719-39.719z"/><path d="m375.287 410.194h39.719v-39.719c-20.827 2.314-37.405 18.892-39.719 39.719z"/><circle cx="256.005" cy="311.009" r="21"/><path d="m134.428 221.821h-37.424v29.72c17.36-1.928 31.767-13.768 37.424-29.72z"/><path d="m415.006 251.541v-29.72h-37.424c5.657 15.952 20.064 27.792 37.424 29.72z"/><path d="m346.511 221.821h-181.012c-6.645 32.607-34.515 57.57-68.495 59.819v58.736c37.377 2.474 67.344 32.44 69.819 69.818h178.365c2.475-37.378 32.441-67.344 69.819-69.818v-58.736c-33.981-2.249-61.851-27.212-68.496-59.819zm-39.506 89.188c0 28.121-22.879 51-51 51s-51-22.879-51-51 22.879-51 51-51 51 22.879 51 51z"/></svg>